<svg version="1.1" id="Layer_1" xmlns="http://www.w3.org/2000/svg" xmlns:xlink="http://www.w3.org/1999/xlink" x="0px" y="0px"
	 width="100%" viewBox="0 0 300 300"  enable-background="new 0 0 300 300" xml:space="preserve">
<path  opacity="1.000000" stroke="none" 
	d="
M1.000000,109.000000 
	C1.000000,72.681595 1.000000,36.863194 1.000000,1.044788 
	C1.151668,1.029859 1.303335,1.001846 1.455003,1.001843 
	C101.246742,0.999980 201.038483,1.000000 300.915100,1.000000 
	C300.915100,100.901680 300.915100,200.803452 300.915100,300.852600 
	C201.000153,300.852600 101.000107,300.852600 1.000000,300.852600 
	C1.000000,237.113327 1.000000,173.306656 1.000000,109.000000 
M252.491470,50.008675 
	C240.249817,36.507359 225.238083,26.746513 208.848450,19.343182 
	C185.102631,8.616990 159.830124,5.878925 134.099655,8.038094 
	C112.109985,9.883353 91.858688,17.273153 73.154732,29.074915 
	C61.971916,36.131012 52.360279,44.917171 43.173420,54.305042 
	C31.405756,66.330185 22.595772,80.386383 16.176828,95.723671 
	C6.138998,119.707855 2.714341,144.832458 5.936194,170.746994 
	C8.493797,191.318695 13.959236,211.021362 25.182373,228.604965 
	C42.248089,255.342300 65.247665,275.359192 94.654953,287.703308 
	C101.214142,290.456604 104.037857,289.321442 106.671913,282.643799 
	C110.805351,272.165009 114.732437,261.605011 118.795082,251.098038 
	C125.128105,234.719254 131.550186,218.374710 137.826630,201.974350 
	C139.595993,197.351059 137.980637,193.496902 133.605591,191.907623 
	C117.122231,185.919907 107.443184,168.910217 107.861565,152.038651 
	C108.420006,129.518829 126.906937,109.939713 149.451370,110.187141 
	C166.449966,110.373718 179.420593,118.030807 187.643661,133.571243 
	C195.924118,149.220123 194.159500,163.714966 184.570114,177.960159 
	C180.536942,183.951477 175.108887,188.020966 168.592133,190.869995 
	C162.661377,193.462814 160.712097,197.423676 162.645447,202.521423 
	C172.718658,229.081863 182.763962,255.652863 192.843414,282.210907 
	C195.262451,288.584778 199.207031,290.362823 205.327316,287.881104 
	C223.701920,280.430511 240.133041,269.747681 253.729172,255.483536 
	C262.122620,246.677719 269.600037,236.643326 275.791992,226.158478 
	C297.986511,188.576630 301.628693,148.586609 288.582550,107.147301 
	C281.693542,85.265511 269.512482,66.462112 252.491470,50.008675 
z"/>
<path fill="#1E541E" opacity="1.000000" stroke="none" 
	d="
M252.741455,50.258682 
	C269.512482,66.462112 281.693542,85.265511 288.582550,107.147301 
	C301.628693,148.586609 297.986511,188.576630 275.791992,226.158478 
	C269.600037,236.643326 262.122620,246.677719 253.729172,255.483536 
	C240.133041,269.747681 223.701920,280.430511 205.327316,287.881104 
	C199.207031,290.362823 195.262451,288.584778 192.843414,282.210907 
	C182.763962,255.652863 172.718658,229.081863 162.645447,202.521423 
	C160.712097,197.423676 162.661377,193.462814 168.592133,190.869995 
	C175.108887,188.020966 180.536942,183.951477 184.570114,177.960159 
	C194.159500,163.714966 195.924118,149.220123 187.643661,133.571243 
	C179.420593,118.030807 166.449966,110.373718 149.451370,110.187141 
	C126.906937,109.939713 108.420006,129.518829 107.861565,152.038651 
	C107.443184,168.910217 117.122231,185.919907 133.605591,191.907623 
	C137.980637,193.496902 139.595993,197.351059 137.826630,201.974350 
	C131.550186,218.374710 125.128105,234.719254 118.795082,251.098038 
	C114.732437,261.605011 110.805351,272.165009 106.671913,282.643799 
	C104.037857,289.321442 101.214142,290.456604 94.654953,287.703308 
	C65.247665,275.359192 42.248089,255.342300 25.182373,228.604965 
	C13.959236,211.021362 8.493797,191.318695 5.936194,170.746994 
	C2.714341,144.832458 6.138998,119.707855 16.176828,95.723671 
	C22.595772,80.386383 31.405756,66.330185 43.173420,54.305042 
	C52.360279,44.917171 61.971916,36.131012 73.154732,29.074915 
	C91.858688,17.273153 112.109985,9.883353 134.099655,8.038094 
	C159.830124,5.878925 185.102631,8.616990 208.848450,19.343182 
	C225.238083,26.746513 240.249817,36.507359 252.741455,50.258682 
M19.910128,121.482574 
	C5.301131,182.126862 35.007893,245.458496 90.840279,272.698090 
	C96.525047,275.471588 96.718208,275.414612 99.000504,269.475372 
	C106.766800,249.265167 114.510361,229.046234 122.270569,208.833679 
	C125.083084,201.508072 125.093338,201.512009 118.806160,197.026276 
	C94.524109,179.701584 88.574638,146.794571 105.251373,122.053741 
	C121.614853,97.777626 154.667252,91.079903 179.542160,106.999504 
	C212.499374,128.091660 212.776474,176.050674 179.909073,197.904953 
	C176.090759,200.443848 175.089615,202.630936 177.072815,206.734970 
	C178.950287,210.620224 180.248734,214.785339 181.801270,218.827576 
	C188.429443,236.084869 195.132446,253.314087 201.625275,270.622162 
	C203.005417,274.301239 204.766541,275.406219 208.226440,273.306671 
	C209.503891,272.531464 210.906143,271.964935 212.230408,271.263428 
	C261.582916,245.119370 288.997742,193.401367 283.112213,137.555023 
	C275.183746,62.324039 203.520660,7.279512 129.090530,20.612923 
	C72.167107,30.810175 35.985931,65.063042 19.910128,121.482574 
z"/>
<path fill="#3DA639" opacity="1.000000" stroke="none" 
	d="
M19.988888,121.076370 
	C35.985931,65.063042 72.167107,30.810175 129.090530,20.612923 
	C203.520660,7.279512 275.183746,62.324039 283.112213,137.555023 
	C288.997742,193.401367 261.582916,245.119370 212.230408,271.263428 
	C210.906143,271.964935 209.503891,272.531464 208.226440,273.306671 
	C204.766541,275.406219 203.005417,274.301239 201.625275,270.622162 
	C195.132446,253.314087 188.429443,236.084869 181.801270,218.827576 
	C180.248734,214.785339 178.950287,210.620224 177.072815,206.734970 
	C175.089615,202.630936 176.090759,200.443848 179.909073,197.904953 
	C212.776474,176.050674 212.499374,128.091660 179.542160,106.999504 
	C154.667252,91.079903 121.614853,97.777626 105.251373,122.053741 
	C88.574638,146.794571 94.524109,179.701584 118.806160,197.026276 
	C125.093338,201.512009 125.083084,201.508072 122.270569,208.833679 
	C114.510361,229.046234 106.766800,249.265167 99.000504,269.475372 
	C96.718208,275.414612 96.525047,275.471588 90.840279,272.698090 
	C35.007893,245.458496 5.301131,182.126862 19.988888,121.076370 
z"/>
</svg>