<?xml version="1.0" encoding="UTF-8"?>
<svg id="Layer_2" data-name="Layer 2" xmlns="http://www.w3.org/2000/svg" viewBox="0 0 570 361.15">
  <defs>
    <style>
      .cls-1 {
        fill: #fff;
      }

      .cls-2 {
        fill: #1072f8;
      }
    </style>
  </defs>
  <g id="Layer_1-2" data-name="Layer 1">
    <g>
      <polygon class="cls-2" points="570 0 570 50.39 570 50.39 570 101.03 519.61 101.03 519.61 50.39 469.22 50.39 469.22 0 570 0"/>
      <path class="cls-1" d="M469.22,201.12c0,5.64-.42,45.85-1.35,51.41,0,.04-.01,.07-.02,.11-11.91,70.84-78.98,118.6-149.81,106.69-34.7-5.83-63.86-24.9-83.19-51.17-28.17,38.23-76.32,59.58-126.35,51.17C37.68,347.42-10.09,280.35,1.82,209.52c10.53-62.62,64.74-108.48,128.24-108.49h57.7s21.78,0,21.78,0v51.09h-21.78v.02h-57.7c-43.59,.01-78.92,35.35-78.91,78.94,.01,43.59,35.35,78.92,78.94,78.91,35.46,0,66.56-23.66,76.03-57.83h-73.11v-51.05h80.03c13.76-58.27,65.92-100.07,126.54-100.08h57.7s21.54,0,21.54,0v51.09h-21.54v.02h-57.7c-43.59,.01-78.92,35.35-78.91,78.94,0,43.59,35.35,78.92,78.94,78.91,35.46,0,66.56-23.66,76.03-57.83h-67.09v-51.05h120.66Z"/>
    </g>
  </g>
</svg>