<?xml version="1.0" encoding="UTF-8"?>
<svg id="Layer_2" data-name="Layer 2" xmlns="http://www.w3.org/2000/svg" viewBox="0 0 1305.7 618.1">
  <defs>
    <style>
      .cls-1 {
        fill: #fff;
      }

      .cls-2 {
        fill: #1072f8;
      }
    </style>
  </defs>
  <g id="Layer_1-2" data-name="Layer 1">
    <g>
      <g>
        <path class="cls-1" d="M737.02,496.41h-27.4l-32.23,53.59-32.22-53.59h-29.64l46.7,77.55v43.08h27.92v-42.74l46.87-77.89Zm-214.03,97.71v-74.79h25.5c23.95,0,39.63,14.3,39.63,37.39s-15.68,37.39-39.63,37.39h-25.5Zm-27.92,22.92h54.8c39.46,0,66.52-23.78,66.52-60.31s-27.06-60.31-66.52-60.31h-54.8v120.63Zm-87.89-22.4v-27.92h56.01v-21.71h-56.01v-26.19h63.42v-22.4h-91.16v120.63h93.4v-22.4h-65.66Zm-115.63,0v-27.92h56.01v-21.71h-56.01v-26.19h63.42v-22.4h-91.16v120.63h93.4v-22.4h-65.66Zm-78.06-54.45c0,13.1-8.62,21.02-25.68,21.02h-22.75v-42.04h22.75c17.06,0,25.68,7.75,25.68,21.02Zm30.5,76.86l-27.06-38.77c15.68-6.72,24.81-19.99,24.81-38.08,0-27.05-20.16-43.77-52.39-43.77h-52.21v120.63h27.92v-33.6h25.68l23.26,33.6h29.98Z"/>
        <path class="cls-1" d="M1194.61,594.64v-27.92h56.01v-21.71h-56.01v-26.19h63.42v-22.4h-91.16v120.63h93.4v-22.4h-65.66Zm-56.35,22.4l-.34-120.63h-22.92l-44.46,74.96-45.15-74.96h-23.09v120.63h26.19v-70.83l35.33,58.08h12.58l35.5-59.62,.17,72.37h26.19Zm-235.57-47.04l19.13-46.19,19.13,46.19h-38.26Zm57.73,47.04h29.3l-53.94-120.63h-27.57l-53.77,120.63h28.61l10.68-25.85h56.01l10.68,25.85Z"/>
        <polygon class="cls-2" points="1305.7 448.43 1257.84 448.43 1257.84 472.36 1281.77 472.36 1281.77 496.41 1305.7 496.41 1305.7 472.36 1305.7 472.36 1305.7 448.43"/>
        <path class="cls-1" d="M121.48,543.23v16.17c0,2.64-.2,5.28-.63,7.88v.05c-5.58,33.13-36.95,55.48-70.09,49.91-16.23-2.73-29.87-11.65-38.91-23.94-9.42-12.8-13.84-29.24-11-46.14,.22-1.33,.49-2.64,.79-3.93,6.44-27.26,30.84-46.81,59.2-46.82h37.07v23.9h-10.08s-26.99,0-26.99,0c-20.39,0-36.92,16.54-36.91,36.93,0,20.39,16.54,36.92,36.93,36.91,16.59,0,31.14-11.07,35.57-27.05h-31.39v-23.89h56.44Z"/>
        <path class="cls-1" d="M854.44,543.23v16.17c0,2.64-.2,5.28-.63,7.88v.05c-5.58,33.13-36.95,55.48-70.09,49.91-16.23-2.73-29.87-11.65-38.91-23.94-9.42-12.8-13.84-29.24-11-46.14,.22-1.33,.49-2.64,.79-3.93,6.44-27.26,30.84-46.81,59.2-46.82h37.07v23.9h-10.08s-26.99,0-26.99,0c-20.39,0-36.92,16.54-36.91,36.93,0,20.39,16.54,36.92,36.93,36.91,16.59,0,31.14-11.07,35.57-27.05h-31.39v-23.89h56.44Z"/>
      </g>
      <g>
        <polygon class="cls-2" points="937.85 0 937.85 50.39 937.85 50.39 937.85 101.03 887.46 101.03 887.46 50.39 837.07 50.39 837.07 0 937.85 0"/>
        <path class="cls-1" d="M837.07,201.12c0,5.64-.42,45.85-1.35,51.41,0,.04-.01,.07-.02,.11-11.91,70.84-78.98,118.6-149.81,106.69-34.7-5.83-63.86-24.9-83.19-51.17-28.17,38.23-76.32,59.58-126.35,51.17-70.83-11.91-118.59-78.98-106.69-149.82,10.53-62.62,64.74-108.48,128.24-108.49h57.7s21.78,0,21.78,0v51.09h-21.78v.02h-57.7c-43.59,.01-78.92,35.35-78.91,78.94,.01,43.59,35.35,78.92,78.94,78.91,35.46,0,66.56-23.66,76.03-57.83h-73.11v-51.05h80.03c13.76-58.27,65.92-100.07,126.54-100.08h57.7s21.54,0,21.54,0v51.09h-21.54v.02h-57.7c-43.59,.01-78.92,35.35-78.91,78.94,0,43.59,35.35,78.92,78.94,78.91,35.46,0,66.56-23.66,76.03-57.83h-67.09v-51.05h120.66Z"/>
      </g>
    </g>
  </g>
</svg>